<?xml version="1.0" encoding="UTF-8" standalone="no"?>
<!-- Created with Inkscape (http://www.inkscape.org/) -->

<svg
   width="200.17072mm"
   height="201.04523mm"
   viewBox="0 0 200.17072 201.04523"
   version="1.1"
   id="svg1"
   xml:space="preserve"
   xmlns="http://www.w3.org/2000/svg"
   xmlns:svg="http://www.w3.org/2000/svg"><defs
     id="defs1" /><g
     id="layer1"><path
       style="fill:#ffffff;fill-opacity:1"
       d="m 49.244784,200.65695 c -10.860378,-2.2491 -15.402312,-14.30728 -9.364188,-24.86056 1.679252,-2.93496 4.312749,-5.60401 9.044803,-9.16692 8.101223,-6.09966 11.600714,-10.11705 14.123384,-16.21353 l 0.875858,-2.11666 -1.612825,1.71979 c -1.097014,1.16977 -1.937203,2.41484 -2.627077,3.89307 -1.885474,4.04008 -4.389345,5.80076 -8.124264,5.71286 l -2.182226,-0.0514 -0.860482,1.07089 c -1.915873,2.38435 -6.417676,2.90783 -8.790459,1.02218 -1.266629,-1.00659 -1.762566,-1.00205 -3.372194,0.0308 -2.314618,1.48529 -7.003687,0.63998 -8.130624,-1.46572 -0.505924,-0.94532 -1.071078,-1.04664 -2.421264,-0.43406 -2.768719,1.25618 -6.195155,0.31091 -7.710767,-2.12719 l -0.848091,-1.3643 -1.481445,0.13434 c -6.1879979,0.5611 -8.6722119,7.4043 -4.243681,11.68996 3.042312,2.94415 -0.339331,4.77967 -4.7754108,2.59203 -8.178824,-4.03335 -9.0985821,-16.12323 -1.769353,-23.25749 5.0922368,-4.95677 11.4361068,-6.50517 21.5060848,-5.24915 3.631386,0.45294 9.667347,0.53422 9.667347,0.13018 0,-0.14552 -0.33381,-0.26458 -0.741801,-0.26458 -1.139145,0 -3.50208,-1.29341 -3.990811,-2.18446 -1.056681,-1.92654 -1.248175,-2.04888 -3.207126,-2.04888 -3.351935,0 -6.042323,-2.36727 -6.387877,-5.62069 -0.227514,-2.14207 -0.746089,-2.84597 -2.096656,-2.84597 -2.821547,0 -5.202083,-6.20942 -3.456855,-9.01691 0.943798,-1.51825 1.093714,-3.03637 0.403822,-4.08927 -0.583204,-0.89009 -0.894489,-0.81835 -0.901422,0.20774 -0.02924,4.3274 -5.595109,5.79332 -7.7820599,2.04962 -0.824419,-1.41127 -0.640304,-3.8926 0.8902,-11.99732 1.6093209,-8.522095 1.5938619,-7.580225 0.137103,-8.353035 -7.0297249,-3.72926 -6.6011509,-14.661216 0.760159,-19.389934 1.4331449,-0.92062 4.3799189,-2.06298 5.3215399,-2.06298 0.729607,0 0.576888,0.67377 1.881096,-8.299111 1.121735,-7.717472 1.160798,-7.428451 -1.317037,-9.744468 -4.265664,-3.98709 -4.558306,-7.016984 -1.962699,-20.321004 2.675802,-13.71507 3.79945,-17.727083 4.964837,-17.727083 1.70393,0 1.681827,1.209978 -0.280329,15.345833 -1.526351,10.9962 -1.491933,10.381431 -0.619619,11.067593 1.971982,1.551162 2.735108,0.513075 3.662534,-4.982177 0.893663,-5.295194 3.57831,-18.930881 3.887082,-19.743012 0.641632,-1.687619 2.369253,-0.913131 2.369253,1.062129 0,2.507271 -1.30816,14.49101 -2.279595,20.882824 -0.570927,3.756568 -0.02765,4.849871 2.139666,4.305909 0.970608,-0.243607 1.044137,-0.493935 2.378511,-8.09756 3.106298,-17.700539 3.243735,-18.205154 4.769085,-17.510158 1.046641,0.476882 1.049531,0.323259 -0.250729,13.329273 -1.972225,19.727435 -2.357456,20.870675 -8.131046,24.130279 -2.593867,1.464422 -2.636925,1.578038 -3.626086,9.567972 -1.016364,8.209661 -1.061052,7.395771 0.448063,8.160491 6.039594,3.0605 8.1487,8.471184 8.519404,21.855609 0.245956,8.88031 0.550861,10.91815 2.089711,13.96659 5.600249,11.09403 24.40217,7.61257 28.859828,-5.34384 1.407997,-4.09241 1.28243,-7.39949 -0.528865,-13.928775 C 57.756532,79.160611 59.499444,67.033869 67.276845,58.47315 l 1.322055,-1.455208 0.708507,-5.820833 c 0.876149,-7.198126 0.877872,-6.746875 -0.02575,-6.746875 -6.1562,0 -13.396966,-6.273556 -15.149486,-13.125841 C 50.709155,17.940526 64.120038,5.0193333 77.520632,8.7899493 l 1.55293,0.436958 1.67145,-1.671455 c 7.63019,-7.63018601 20.786448,-9.803714 30.474608,-5.034668 2.34183,1.152777 5.37723,3.634662 6.0738,4.966218 0.21735,0.415481 0.39632,0.441272 1.42188,0.204905 5.49913,-1.267419 14.15708,2.06285 17.99905,6.9233107 7.38002,9.336419 2.25066,24.378996 -9.54978,28.006138 -1.09141,0.335469 -2.06134,0.675844 -2.1554,0.75639 -0.0941,0.08055 -0.0586,3.559095 0.0788,7.73011 l 0.24987,7.583664 1.19426,1.279877 c 8.14121,8.724798 8.68104,23.862512 1.32333,37.107978 -2.97493,5.355515 -3.6195,9.084845 -2.2973,13.291785 4.31135,13.71776 27.24605,12.99052 29.66786,-0.94075 0.56699,-3.26154 -0.0745,-6.15766 -3.05279,-13.783295 -4.46387,-11.429146 -3.54197,-20.192824 2.79629,-26.582069 6.04194,-6.090536 16.67906,-6.296839 20.90466,-0.405438 2.11085,2.942973 1.14595,4.15336 -3.34841,4.200316 -2.97891,0.03112 -3.24157,0.0781 -4.57945,0.819119 -4.29753,2.380288 -6.0817,8.723746 -2.99358,10.643426 2.29335,1.42562 3.48683,3.617676 3.48683,6.404246 0,1.91435 0.38734,2.45044 2.49849,3.458 3.22915,1.54114 4.72004,5.18225 3.71358,9.069475 -0.16668,0.6438 -0.004,0.90979 1.405,2.30172 2.89882,2.86305 2.98512,8.04219 0.16483,9.89094 -1.12599,0.7381 -1.25097,1.52767 -0.47333,2.9902 0.80473,1.5135 0.79336,2.59062 -0.0496,4.69623 -1.10198,2.75269 -2.41661,4.01682 -4.69675,4.51633 -0.91551,0.20056 -1.62022,1.6584 -1.36449,2.82273 0.31629,1.44003 -3.56554,6.01166 -5.15185,6.06734 -2.89563,0.10164 -3.53622,0.44149 -3.9869,2.11516 -0.71824,2.66735 -5.38663,5.03162 -8.24452,4.17538 -1.03124,-0.30897 -3.92283,0.27587 -3.92283,0.79342 0,2.29852 9.33392,6.77275 14.15521,6.78532 6.28023,0.0164 8.98043,-2.64138 10.61092,-10.44414 2.7266,-13.04818 11.91191,-18.84568 21.658,-13.66991 6.46708,3.43441 7.47814,9.93153 1.20087,7.71679 -2.39632,-0.84548 -5.42824,-0.28436 -7.00992,1.29733 l -0.66322,0.66321 0.66157,0.97488 c 1.24078,1.82839 0.72234,6.32406 -0.91453,7.93049 -0.94065,0.92316 -0.99619,1.61298 -0.24798,3.07959 1.16542,2.28441 -0.0217,6.76308 -2.1245,8.01491 -1.9299,1.14893 -2.45182,1.864 -2.26647,3.10526 0.47685,3.19346 -3.7379,7.03991 -7.31983,6.68019 -2.10687,-0.21158 -2.36849,-0.077 -3.1102,1.59976 -1.18755,2.68465 -6.63437,4.36799 -9.39097,2.90229 -1.59922,-0.85031 -2.48461,-0.83473 -3.7588,0.0661 -2.58873,1.83029 -8.84041,0.74331 -10.41165,-1.81029 -0.95859,-1.5579 -1.616,-1.77471 -3.65981,-1.207 -3.2261,0.89611 -8.1296,-1.60651 -9.25161,-4.72177 -0.59369,-1.64837 -1.42582,-2.14521 -2.90495,-1.73444 -3.26942,0.90795 -7.91255,-1.74143 -9.46867,-5.40284 -0.7879,-1.85387 -3.01808,-3.70359 -7.937,-6.58302 -2.55866,-1.49778 -2.61883,-1.38994 -1.00417,1.79948 2.81595,5.56232 6.15618,9.40867 12.91709,14.87433 7.70566,6.22942 10.16252,9.61338 11.39192,15.69068 2.58195,12.76329 -9.29081,23.63767 -20.22259,18.52208 -6.51922,-3.05072 -8.53776,-9.4843 -2.28183,-7.27279 3.28209,1.16025 5.85988,0.51176 7.73423,-1.94568 1.31313,-1.72163 1.217,-2.74071 -0.29673,-3.14557 -1.55624,-0.41623 -2.70804,-1.63191 -3.78482,-3.99475 -0.84894,-1.86289 -0.91993,-1.94048 -1.60894,-1.75865 -3.48541,0.91979 -7.01419,-0.37294 -8.30253,-3.04154 -0.85905,-1.7794 -1.49616,-2.15484 -3.30021,-1.94478 -3.27592,0.38144 -7.762738,-3.72137 -7.769718,-7.10475 -0.003,-1.31123 -0.5302,-2.00134 -1.97935,-2.5895 -3.6836,-1.49507 -6.05632,-6.59624 -4.95852,-10.66045 0.48694,-1.8027 0.35365,-2.36656 -1.85879,-7.86302 -1.80727,-4.48986 -2.32097,-5.48394 -2.58765,-5.00742 -0.52476,0.9377 -1.6226,5.44797 -2.10182,8.63493 -0.95676,6.36286 -2.97206,10.13082 -5.41849,10.13082 -1.27155,0 -2.00644,1.41894 -1.82802,3.52959 0.31788,3.76054 -3.35076,7.84749 -7.044283,7.84749 -1.645279,0 -2.764489,0.9065 -3.059275,2.47785 -0.492231,2.62381 -5.358007,5.01184 -8.965973,4.40032 -0.700551,-0.11873 -0.877713,0.0177 -1.852083,1.42611 -1.376638,1.98989 -2.905545,3.08465 -4.848843,3.47196 -2.003443,0.3993 -2.458737,1.08557 -1.96311,2.95903 0.949537,3.58921 4.773435,5.58388 8.582071,4.47668 3.135652,-0.91156 4.150588,-0.2661 3.257741,2.07179 -1.713286,4.48617 -7.789054,7.04655 -13.778209,5.80623 z m 79.443396,-4.34058 c 5.23672,-2.41384 7.98828,-8.62526 6.54079,-14.76526 -1.02586,-4.35147 -3.17715,-7.11742 -9.42993,-12.12419 -9.59005,-7.67901 -13.72813,-13.21684 -17.36902,-23.24431 -1.42639,-3.92843 -3.56477,-12.83229 -3.08186,-12.83229 0.031,0 0.9936,0.93364 2.13903,2.07475 4.79926,4.78122 9.92722,7.95764 26.68884,16.53193 20.06042,10.26178 25.05089,11.68104 33.16595,9.43224 8.56691,-2.37401 12.42936,-7.59198 14.04596,-18.97536 1.12948,-7.95331 3.05934,-10.91329 8.15531,-12.50842 1.50325,-0.47055 1.51088,-0.47806 0.77505,-0.7635 -5.74179,-2.22731 -11.23003,2.27494 -13.02793,10.68741 -3.74343,17.51567 -15.27644,19.69872 -33.68897,6.37688 -1.35343,-0.97924 -4.62313,-3.22105 -7.266,-4.98181 -6.38391,-4.25314 -9.52055,-7.30538 -11.35469,-11.04912 -1.94003,-3.95987 -1.94591,-4.44701 -0.0315,-2.60966 9.96415,9.56321 22.67134,10.35944 33.62337,2.10684 11.59064,-8.73381 13.26905,-21.03561 4.7951,-35.145385 -6.954,-11.578946 -5.42238,-22.001427 3.68387,-25.068378 l 1.73825,-0.585434 -1.0456,-0.167197 c -2.71343,-0.433895 -7.07978,1.123273 -9.40937,3.355657 -5.31824,5.096328 -5.85263,11.904206 -1.80981,23.056262 2.41561,6.663435 2.68354,7.747995 2.84327,11.509375 0.93626,22.04679 -33.83206,24.70349 -38.34639,2.93011 -0.99232,-4.78613 -0.40308,-7.73549 2.80908,-14.060345 8.73222,-17.194024 5.35124,-32.250978 -8.44035,-37.588601 -9.36863,-3.62585 -25.201418,-4.180305 -36.542658,-1.279702 -12.84637,3.285547 -17.751081,17.253754 -12.910973,36.769373 1.96478,7.922115 1.915155,12.588095 -0.186806,17.564295 -6.508856,15.40913 -28.731202,18.65846 -35.493808,5.18987 -1.935214,-3.85422 -2.335967,-6.20984 -2.588219,-15.21354 -0.386342,-13.789795 -2.600522,-18.575281 -9.254825,-20.002379 -7.219183,-1.54823 -13.6833838,7.376474 -9.0541489,12.500484 1.2423449,1.37513 1.3027439,1.33063 1.4412409,-1.06182 0.298365,-5.15409 5.909621,-8.506256 10.450786,-6.243294 2.366977,1.179524 2.512514,3.170444 0.225475,3.084474 l -0.939554,-0.0353 0.417184,0.98414 c 1.184697,2.7947 1.417179,7.01927 0.86479,15.714645 -0.611025,9.61839 0.822849,15.49966 4.984438,20.44451 8.831334,10.4935 24.037951,9.87019 36.473304,-1.49502 3.737279,-3.41567 -0.983252,4.9875 -5.430797,9.66752 -8.882938,9.34727 -18.296678,12.83283 -31.59207,11.69737 -8.666368,-0.74013 -12.211593,-0.26762 -15.953959,2.12634 -5.3042478,3.39309 -7.7121898,9.83048 -5.5261278,14.77355 0.833971,1.88576 0.908809,1.85844 0.915739,-0.33422 0.01717,-5.43337 4.3988188,-10.11441 10.2176648,-10.91584 2.307655,-0.31783 4.148869,-0.13161 12.303124,1.24434 17.954228,3.0296 32.098434,-4.06287 43.269128,-21.69685 1.571603,-2.48092 1.578996,-2.47227 0.905868,1.05981 -3.643148,19.11655 -8.652694,28.18753 -20.403302,36.94504 -5.86804,4.37334 -7.575772,6.19138 -9.21817,9.81361 -3.840459,8.46995 1.276846,17.64037 9.84373,17.64037 1.637294,0 1.594379,-0.25142 -0.173512,-1.01654 -4.917808,-2.12838 -6.973542,-8.36607 -4.521977,-13.721 1.322905,-2.8896 3.644188,-4.91917 9.841234,-8.60449 11.890632,-7.07124 18.510903,-15.80485 24.272533,-32.02088 4.36761,-12.29257 7.17311,-11.84197 11.9361,1.91708 5.77066,16.66992 11.054188,23.14053 25.221718,30.88839 8.03971,4.39671 10.01675,6.36362 10.89781,10.84195 0.94782,4.81769 -3.30744,11.44815 -7.34877,11.4507 -0.71414,4.5e-4 -0.28081,0.50267 0.52916,0.61329 1.64986,0.22533 3.77148,-0.1197 5.42622,-0.88244 z M 87.504752,114.41078 c -2.83135,-0.7614 -6.1131,-3.23217 -6.1131,-4.60247 0,-0.67429 0.10336,-0.66991 2.15131,0.0912 5.82532,2.16496 12.17752,1.2638 17.097128,-2.42549 0.53661,-0.40241 0.8599,-0.87503 0.8599,-1.25708 0,-1.30452 1.48788,-1.07466 2.74958,0.42479 1.15594,1.37375 0.84547,4.07485 -0.39223,3.41246 -0.37156,-0.19886 -0.88494,0.0437 -2.41278,1.13985 -4.416628,3.16878 -9.637778,4.37361 -13.939808,3.21673 z M 105.55537,91.484361 c -4.67769,-1.66711 -8.232072,2.36311 -5.08864,-2.583896 2.30584,-3.628828 5.95644,-1.618342 8.84805,1.187876 6.0451,5.866576 3.54667,3.999875 -3.75941,1.39602 z m -33.557853,6.526024 c -6.223191,-4.22317 -3.954719,-17.613964 2.829745,-16.703984 7.33449,0.983758 6.73842,17.383494 -0.63182,17.383494 -0.848547,0 -1.487864,-0.19765 -2.197925,-0.67951 z m 4.886915,-9.35726 c 0.51762,-0.96718 0.33373,-2.347244 -0.37461,-2.811366 -1.66872,-1.09339 -3.27618,1.477326 -1.82881,2.924696 0.57531,0.57532 1.87052,0.5087 2.20342,-0.11333 z m 37.263538,-1.728081 c -2.64374,-3.53567 -9.06725,-4.51691 -13.84235,-2.11442 -2.406228,1.21064 -2.728858,0.14954 -0.642678,-2.11369 4.390298,-4.762914 15.638618,-1.730573 15.017738,4.04847 l -0.0838,0.78 z M 67.633325,77.516161 c 0,-4.455937 7.404757,-6.041216 11.074947,-2.37103 2.14097,2.14098 1.73045,3.12556 -0.78302,1.87793 -2.82646,-1.40299 -5.654294,-1.39867 -8.405439,0.0129 -1.659239,0.8513 -1.886488,0.90915 -1.886488,0.48025 z M 125.75245,184.53032 c 0.22569,-0.58815 -0.29841,-1.59797 -1.10296,-2.12513 -1.2989,-0.85108 -1.53815,0.36447 -0.36523,1.8556 0.60641,0.77093 1.23173,0.88572 1.46819,0.26953 z m -71.017024,-2.54978 c 1.406696,-0.99078 1.561191,-2.06356 0.297182,-2.06356 -1.012691,0 -1.692629,0.47854 -2.114473,1.48815 -0.639644,1.53089 0.119466,1.77124 1.817291,0.57541 z m 63.116494,-3.28606 c 0.19456,-1.36353 -2.61231,-2.91973 -4.06906,-2.256 -1.03426,0.47124 -0.80875,1.26701 0.61556,2.17219 1.55082,0.98557 3.3187,1.02847 3.4535,0.0838 z m -54.795107,-1.21342 c 1.287619,-0.55548 2.989012,-1.80827 2.989012,-2.2009 0,-1.41542 -2.599476,-1.42668 -4.093393,-0.0177 -1.767447,1.66692 -1.033686,3.141 1.104381,2.21864 z m 44.264007,-4.74879 c 0,-1.65748 -3.45131,-4.02945 -4.43365,-3.04711 -0.54956,0.54955 -0.0234,1.36687 1.81586,2.82073 1.69428,1.33925 2.61779,1.41911 2.61779,0.22638 z m -33.558828,-2.97493 c 1.6072,-1.22719 2.64068,-3.14481 2.02609,-3.75941 -1.26525,-1.26525 -4.838429,2.01901 -4.34323,3.99204 0.229933,0.91613 0.900879,0.84877 2.31714,-0.23263 z m 84.118688,-1.97778 0.61224,-0.49576 -0.8045,-0.8045 c -1.59024,-1.59024 -5.65302,-1.42379 -5.65302,0.2316 0,0.62526 0.67197,0.97615 2.42917,1.26846 2.19751,0.36555 2.75845,0.33274 3.41611,-0.1998 z m 9.94531,-0.16515 c 2.45348,-0.7286 3.25211,-1.70147 1.94963,-2.37501 -1.66556,-0.86129 -4.37806,-0.1598 -4.8873,1.26393 -0.5065,1.41606 0.55665,1.81817 2.93767,1.11108 z m -22.76521,-3.44073 c 0.66914,-1.74375 -3.03088,-4.05936 -4.89349,-3.06253 -0.79714,0.42662 -0.70686,0.94538 0.29793,1.71177 1.86809,1.42486 4.29356,2.13777 4.59556,1.35076 z m -46.862878,-0.94183 c 0.38851,-1.22411 -2.14516,-4.76693 -2.88208,-4.03001 -0.29041,0.29042 -0.17909,1.38584 0.24367,2.39763 0.80133,1.91786 2.26114,2.82104 2.63841,1.63238 z m 80.005108,-0.63156 c 0.89692,-0.46382 2.29015,-2.00545 2.54876,-2.82024 0.57993,-1.82721 -2.67136,-1.49664 -3.8112,0.3875 -1.34656,2.22583 -0.7099,3.45268 1.26244,2.43274 z M 34.962391,159.44076 c 0.748892,-0.5476 0.180637,-1.54761 -1.281696,-2.25552 -2.194021,-1.0621 -4.427522,0.24661 -2.852881,1.67164 0.995014,0.90048 3.263499,1.22083 4.134577,0.58388 z m 10.709129,0.13148 c 0.899691,-0.25034 0.948093,-0.85057 0.130525,-1.61864 -1.680524,-1.57877 -5.915079,-0.068 -4.309552,1.53755 0.339896,0.3399 3.059268,0.39266 4.179027,0.0811 z m 35.524162,-1.02036 c 0.91806,-0.95869 1.85923,-3.11481 1.64891,-3.77748 -0.43899,-1.38314 -2.72086,0.0697 -3.33642,2.12432 -0.63588,2.12235 0.33107,3.06961 1.68751,1.65316 z m 51.217468,-0.96386 c 0.31681,-1.64507 -3.2157,-3.71254 -4.6027,-2.69381 -0.67581,0.49636 0.37177,1.67272 2.38142,2.67417 1.49532,0.74515 2.08056,0.75033 2.22128,0.0196 z M 24.347494,157.20993 c -0.01455,-0.17143 -0.04432,-0.48723 -0.06615,-0.70178 -0.110073,-1.08188 -3.502677,-1.6161 -3.698699,-0.58242 -0.200918,1.0595 1.709419,2.13887 3.129845,1.76841 0.363802,-0.0949 0.649552,-0.31278 0.635,-0.48421 z m 30.234062,-0.68924 c 2.882559,-1.34212 2.349301,-3.3242 -0.549374,-2.04198 -1.246836,0.55154 -1.94673,1.51138 -1.655484,2.27036 0.214694,0.55948 0.598002,0.51978 2.204858,-0.22838 z M 184.93334,152.8252 c 1.00196,-1.52918 1.06226,-3.38961 0.1261,-3.89062 -1.18377,-0.63354 -2.55836,1.44146 -2.24286,3.38569 0.28985,1.78611 1.14382,1.98982 2.11676,0.50493 z m 1.84169,-11.14446 c 0.6267,-1.68788 0.51889,-2.87786 -0.27089,-2.99013 -1.30939,-0.18612 -2.13811,2.83921 -1.11532,4.0716 0.50241,0.60536 0.86491,0.32255 1.38621,-1.08147 z m -31.06147,-2.3132 c 2.18582,-1.10705 2.7172,-1.83319 1.78734,-2.44246 -1.74881,-1.14587 -5.65202,1.40758 -4.42029,2.89172 0.47217,0.56893 0.699,0.53023 2.63295,-0.44926 z m -117.97815,-0.0449 c 0,-0.86096 -2.894498,-2.26937 -3.883745,-1.88976 -0.699581,0.26846 -0.240729,1.06499 0.963245,1.67212 1.356142,0.68386 2.9205,0.80044 2.9205,0.21764 z m -9.70914,-5.88594 c -0.878964,-1.70602 -3.520026,-2.81382 -3.520026,-1.47648 0,1.2661 2.952939,3.57763 3.663119,2.86745 0.328312,-0.32832 0.30933,-0.51284 -0.143093,-1.39097 z m 136.98808,-0.89965 c 2.30006,-1.8018 2.31082,-3.88339 0.0165,-3.19601 -1.78889,0.53597 -3.10604,2.71272 -2.41865,3.99711 0.33644,0.62864 0.75534,0.48894 2.40212,-0.8011 z M 21.281907,125.59502 c 0.150346,-1.81969 -1.410107,-4.19518 -2.484879,-3.78275 -1.154107,0.44287 0.749448,5.09932 1.988776,4.86491 0.269189,-0.0509 0.442053,-0.42798 0.496103,-1.08216 z m 150.574063,-1.74489 c 1.13771,-1.21792 1.72563,-3.77277 1.0286,-4.46981 -1.33054,-1.33054 -3.88931,2.03017 -3.10879,4.0831 0.51529,1.35531 1.07771,1.45987 2.08019,0.38671 z m 2.91586,-11.36876 c 1.16874,-2.1838 0.1207,-5.46446 -1.57386,-4.92663 -0.65611,0.20824 -1.14763,1.97021 -0.92206,3.30534 0.29754,1.7611 1.8733,2.78468 2.49592,1.62129 z m -157.401269,-0.0374 c 1.138279,-0.60919 1.239033,-3.83298 0.148089,-4.73838 -0.306697,-0.25453 -0.419688,0.0202 -0.667322,1.62283 -0.16396,1.06108 -0.35117,2.25666 -0.416023,2.65685 -0.125485,0.77431 0.120294,0.89485 0.935256,0.4587 z m 1.568744,-10.3936 c 0.28442,-1.31199 0.391219,-7.268725 0.125559,-7.003065 -0.164012,0.16401 -1.431952,8.212735 -1.428289,9.066605 0.004,0.93878 0.990681,-0.6241 1.30273,-2.06354 z m 153.198615,-1.85468 c -0.0127,-1.846655 -1.72652,-4.192615 -2.77027,-3.792095 -1.08385,0.41591 0.12172,3.937905 1.55409,4.540165 1.02651,0.43162 1.22347,0.31047 1.21618,-0.74807 z m -6.61458,-10.038555 c -0.009,-1.31105 -0.91605,-3.10885 -1.56875,-3.10885 -0.75528,0 -0.70622,0.88968 0.14302,2.59388 0.78987,1.58507 1.43453,1.81792 1.42573,0.51497 z M 120.64709,54.041459 c -0.0494,-0.691224 -0.16442,-4.32263 -0.25562,-8.069791 l -0.16581,-6.81302 -0.96232,-0.0039 c -2.2845,-0.0093 -5.66859,-1.167897 -8.07332,-2.764067 l -1.38215,-0.917414 -1.63091,0.658757 c -6.1233,2.473309 -14.877648,2.430254 -19.804558,-0.0974 l -1.02554,-0.52613 -1.05937,0.618923 c -2.05834,1.202554 -5.88109,2.283411 -8.60719,2.433627 l -2.53951,0.139935 -0.7148,7.041861 c -0.39314,3.873024 -0.7131,7.285256 -0.71103,7.582738 0.004,0.518849 0.125,0.500861 2.98034,-0.441673 11.41102,-3.766724 31.224178,-3.012441 41.870308,1.593995 2.33363,1.009729 2.18701,1.040471 2.08148,-0.436428 z M 70.808325,38.527619 c 0,-1.202472 -0.09676,-1.488176 -0.620118,-1.831095 -1.84282,-1.207462 -2.967947,-2.871477 -3.515851,-5.199791 -0.428523,-1.821006 -0.435456,-1.818038 1.039085,-0.444881 3.662185,3.410387 9.355451,4.519254 14.561031,2.836025 1.77753,-0.574763 1.8001,-0.593637 1.39033,-1.162468 -0.92533,-1.284542 -1.24496,-2.127674 -1.27298,-3.358005 -0.0496,-2.179761 0.32427,-2.246189 2.25364,-0.400365 7.18707,6.875861 21.030778,6.670336 28.325108,-0.420517 l 1.81129,-1.760765 -0.17538,1.169483 c -0.22069,1.471679 -0.79998,2.887521 -1.63321,3.991684 l -0.64751,0.858068 1.26884,0.806221 c 3.45196,2.193372 8.69237,2.343312 13.39817,0.383352 0.63153,-0.263031 -0.11491,1.289347 -1.38739,2.88536 -1.44538,1.812882 -0.58292,1.941584 2.59568,0.387344 7.61001,-3.721059 9.83269,-14.545879 4.20793,-20.493241 -4.3234,-4.571353 -13.34558,-6.564633 -13.81163,-3.051416 -0.16381,1.234921 -1.72118,4.850843 -2.22276,5.160831 -0.15999,0.09888 -0.29949,-0.826205 -0.36434,-2.416137 -0.3913,-9.5935757 -11.63992,-14.5510887 -24.033268,-10.5919927 -7.91528,2.52856 -13.69726,9.5645297 -12.44019,15.1382047 0.2791,1.237533 -0.0186,1.202962 -0.74324,-0.0863 -0.95284,-1.695346 -1.40858,-3.217235 -1.59208,-5.316487 -0.24052,-2.751694 -3.07481,-3.472362 -8.350129,-2.123163 -13.820856,3.534779 -14.511675,22.444454 -0.951445,26.043747 2.704547,0.717869 2.910417,0.646871 2.910417,-1.003696 z"
       id="path1" /></g></svg>
