<?xml version="1.0" encoding="UTF-8" standalone="no"?>
<!-- Created with Inkscape (http://www.inkscape.org/) -->

<svg
   width="200.17082mm"
   height="201.04494mm"
   viewBox="0 0 200.17083 201.04494"
   version="1.1"
   id="svg1"
   xml:space="preserve"
   xmlns="http://www.w3.org/2000/svg"
   xmlns:svg="http://www.w3.org/2000/svg"><defs
     id="defs1" /><g
     id="layer1"
     transform="translate(8.3906925e-5,-5.3667188e-5)"><path
       id="path1"
       style="fill:#ffffff;fill-opacity:1"
       d="M 99.331405,0.00620117 C 92.441137,0.1492809 85.513811,2.7867449 80.744942,7.5556112 L 79.073726,9.226827 77.52085,8.7901611 C 64.120256,5.0195451 50.70908,17.940319 54.132096,31.324186 55.884616,38.176471 63.125359,44.45 69.281559,44.45 c 0.903622,0 0.901987,-0.451251 0.02584,6.746875 l -0.708483,5.820833 -1.321884,1.455209 c -7.777401,8.560719 -9.520609,20.68786 -5.20795,36.233964 1.811295,6.529289 1.937163,9.836459 0.529166,13.928869 -4.457658,12.95641 -23.260005,16.43737 -28.860254,5.34334 -1.53885,-3.04844 -1.843322,-5.08628 -2.089278,-13.96659 -0.370704,-13.384425 -2.479782,-18.795014 -8.519376,-21.855514 -1.509115,-0.76472 -1.464399,0.04944 -0.448035,-8.160225 0.989161,-7.989934 1.031751,-8.103469 3.625618,-9.567891 5.77359,-3.259604 6.159062,-4.402875 8.131287,-24.13031 1.30026,-13.006014 1.297272,-12.852537 0.250631,-13.329419 -1.52535,-0.694996 -1.66292,-0.190497 -4.769218,17.510042 -1.334374,7.603625 -1.407542,7.85409 -2.37815,8.097697 -2.167316,0.543962 -2.710848,-0.549629 -2.139921,-4.306197 C 26.372987,37.878869 27.681,25.895507 27.681,23.388236 c 0,-1.97526 -1.727216,-2.750086 -2.368848,-1.062467 -0.308772,0.812131 -2.993438,14.447787 -3.887101,19.742981 -0.927426,5.495252 -1.690844,6.533804 -3.662826,4.982642 -0.872314,-0.686162 -0.90675,-0.07186 0.619601,-11.068059 C 20.34398,21.847478 20.366357,20.6375 18.662427,20.6375 c -1.165387,0 -2.28927,4.012013 -4.965072,17.727083 -2.595607,13.30402 -2.302993,16.334151 1.962671,20.321241 2.477835,2.316017 2.438967,2.027152 1.317232,9.744624 -1.304208,8.972881 -1.151415,8.298719 -1.881022,8.298719 -0.941621,0 -3.888494,1.14282 -5.3216388,2.06344 -7.3613099,4.728718 -7.7898853,15.660254 -0.7601604,19.389514 1.4567592,0.77281 1.4723782,-0.169117 -0.1369425,8.352979 -1.530504,8.10472 -1.7148039,10.58645 -0.8903849,11.99772 2.1869506,3.7437 7.7527136,2.27739 7.7819536,-2.05001 0.0069,-1.02609 0.31855,-1.09783 0.901754,-0.20774 0.689892,1.0529 0.539688,2.57143 -0.40411,4.08968 -1.745228,2.80749 0.635607,9.0165 3.457154,9.0165 1.350567,0 1.868999,0.70427 2.096513,2.84634 0.345554,3.25342 3.035788,5.62033 6.387723,5.62033 1.958951,0 2.150359,0.12243 3.20704,2.04897 0.488731,0.89105 2.851826,2.18436 3.990971,2.18436 0.407991,0 0.741556,0.11906 0.741556,0.26458 0,0.40404 -6.035724,0.32324 -9.66711,-0.1297 -10.069978,-1.25602 -16.413944,0.292 -21.5061806,5.24877 -7.3292291,7.13426 -6.409423,19.22415 1.769401,23.2575 4.4360796,2.18764 7.8177316,0.35206 4.7754196,-2.59209 -4.4285314,-4.28566 -1.9443298,-11.12863 4.243668,-11.68973 l 1.481563,-0.13436 0.848011,1.36426 c 1.515612,2.4381 4.941921,3.38318 7.71064,2.127 1.350186,-0.61258 1.915634,-0.51124 2.421558,0.43408 1.126937,2.1057 5.815635,2.95135 8.130253,1.46606 1.609628,-1.03285 2.105775,-1.03759 3.372404,-0.031 2.372783,1.88565 6.874805,1.36219 8.790678,-1.02216 l 0.860412,-1.07074 2.182296,0.0512 c 3.734919,0.0879 6.238578,-1.67275 8.124052,-5.71283 0.689874,-1.47823 1.530216,-2.72301 2.62723,-3.89278 l 1.612821,-1.71979 -0.875915,2.11666 c -2.52267,6.09648 -6.022463,10.11382 -14.123686,16.21348 -4.732054,3.56291 -7.365157,6.23192 -9.044409,9.16688 -6.038124,10.55328 -1.496609,22.6114 9.363769,24.8605 5.989155,1.24032 12.065202,-1.32019 13.778488,-5.80636 0.892847,-2.33789 -0.122031,-2.98327 -3.257683,-2.07171 -3.808636,1.1072 -7.632885,-0.88752 -8.582422,-4.47673 -0.495627,-1.87346 -0.04025,-2.55969 1.963188,-2.95899 1.943298,-0.38731 3.472162,-1.48225 4.8488,-3.47214 0.97437,-1.40841 1.151532,-1.545 1.852083,-1.42627 3.607966,0.61152 8.474147,-1.77644 8.966378,-4.40025 0.294786,-1.57135 1.413966,-2.47788 3.059245,-2.47788 3.693523,0 7.361894,-4.08653 7.044014,-7.84707 -0.17842,-2.11065 0.556762,-3.53002 1.828312,-3.53002 2.44643,0 4.461514,-3.76778 5.418274,-10.13064 0.47922,-3.18696 1.576921,-7.69744 2.101681,-8.63514 0.26668,-0.47652 0.780685,0.51759 2.587955,5.00745 2.21244,5.49646 2.345742,6.06039 1.858802,7.86309 -1.0978,4.06421 1.274753,9.16526 4.958353,10.66033 1.44915,0.58816 1.976208,1.27827 1.979208,2.5895 0.007,3.38338 4.494145,7.48644 7.770065,7.105 1.80405,-0.21006 2.44101,0.16518 3.30006,1.94458 1.28834,2.6686 4.81693,3.96146 8.30234,3.04167 0.68901,-0.18183 0.76026,-0.10434 1.6092,1.75855 1.07678,2.36284 2.22854,3.57888 3.78478,3.99511 1.51373,0.40486 1.60975,1.42391 0.29662,3.14554 -1.87435,2.45744 -4.45232,3.10587 -7.73441,1.94562 -6.25593,-2.21151 -4.23719,4.22171 2.28203,7.27243 10.93178,5.11559 22.80449,-5.75858 20.22254,-18.52187 -1.2294,-6.0773 -3.68641,-9.4611 -11.39207,-15.69052 -6.76091,-5.46566 -10.10109,-9.31222 -12.91704,-14.87454 -1.61466,-3.18942 -1.55459,-3.29715 1.00407,-1.79937 4.91892,2.87943 7.14909,4.72919 7.93699,6.58306 1.55612,3.66141 6.19925,6.31072 9.46867,5.40277 1.47913,-0.41077 2.31156,0.0859 2.90525,1.73426 1.12201,3.11526 6.02553,5.6183 9.25163,4.72219 2.04381,-0.56771 2.70114,-0.35125 3.65973,1.20665 1.57124,2.5536 7.82303,3.64051 10.41176,1.81022 1.27419,-0.90083 2.15973,-0.91646 3.75895,-0.0662 2.7566,1.46571 8.20309,-0.21749 9.39064,-2.90214 0.74171,-1.67676 1.00353,-1.81149 3.1104,-1.59991 3.58193,0.35972 7.7963,-3.48675 7.31945,-6.68021 -0.18535,-1.24126 0.33663,-1.95631 2.26653,-3.10524 2.1028,-1.25183 3.29036,-5.73008 2.12494,-8.01449 -0.74821,-1.46661 -0.69312,-2.15676 0.24753,-3.07992 1.63687,-1.60643 2.15545,-6.10187 0.91467,-7.93026 l -0.66146,-0.97514 0.66301,-0.66301 c 1.58168,-1.58169 4.61359,-2.14307 7.00991,-1.29759 6.27727,2.21474 5.26663,-4.28192 -1.20045,-7.71633 -9.74609,-5.17577 -18.93151,0.62127 -21.65811,13.66945 -1.63049,7.80276 -4.331,10.46073 -10.61123,10.44433 -4.82129,-0.0126 -14.15521,-4.4866 -14.15521,-6.78512 0,-0.51755 2.89152,-1.10272 3.92276,-0.79375 2.85789,0.85624 7.52673,-1.5081 8.24497,-4.17545 0.45068,-1.67367 1.09121,-2.01348 3.98684,-2.11512 1.58631,-0.0557 5.46791,-4.6273 5.15162,-6.06733 -0.25573,-1.16433 0.44927,-2.62201 1.36478,-2.82257 2.28014,-0.49951 3.59437,-1.76383 4.69635,-4.51652 0.84296,-2.10561 0.85434,-3.18233 0.0496,-4.69583 -0.77764,-1.46253 -0.65264,-2.25242 0.47335,-2.99052 2.82029,-1.84875 2.73398,-7.02782 -0.16484,-9.89087 -1.409,-1.39193 -1.57177,-1.65787 -1.40509,-2.30167 1.00646,-3.887222 -0.48431,-7.528071 -3.71346,-9.069211 -2.11115,-1.00756 -2.49856,-1.543837 -2.49856,-3.458187 0,-2.78657 -1.19326,-4.97864 -3.48661,-6.40426 -3.08812,-1.91968 -1.30391,-8.26299 2.99362,-10.643278 1.33788,-0.741019 1.60065,-0.787952 4.57956,-0.819072 4.49436,-0.04696 5.45897,-1.257804 3.34812,-4.200777 -4.2256,-5.891401 -14.86273,-5.684876 -20.90467,0.40566 -6.33826,6.389245 -7.26008,15.152694 -2.79621,26.58184 2.97829,7.625635 3.62003,10.522115 3.05304,13.783655 -2.42181,13.93127 -25.3566,14.65827 -29.66795,0.94051 -1.3222,-4.20694 -0.67792,-7.93618 2.29701,-13.291694 7.35771,-13.245466 6.8183,-28.383015 -1.32291,-37.107813 l -1.19424,-1.280025 -0.25012,-7.583516 c -0.1374,-4.171015 -0.17265,-7.649728 -0.0785,-7.730278 0.0941,-0.08055 1.0635,-0.421074 2.15491,-0.756543 11.80044,-3.627142 16.92983,-18.669623 9.54981,-28.006042 -3.84197,-4.8604611 -12.49978,-8.1905111 -17.99891,-6.9230921 -1.02556,0.236367 -1.20426,0.2103256 -1.42161,-0.2051554 -0.69657,-1.331556 -3.73222,-3.8133281 -6.07405,-4.9661051 -3.63306,-1.78839228 -7.754,-2.60042306 -11.888165,-2.51457523 z M 100.9034,4.5108358 c 8.41046,0.1737557 14.81155,4.7611943 15.10502,11.9563762 0.0648,1.589932 0.20433,2.51527 0.36432,2.41639 0.50158,-0.309988 2.0588,-3.926004 2.22261,-5.160925 0.46605,-3.513217 9.48816,-1.51986 13.81156,3.051493 5.62476,5.947362 3.40199,16.772264 -4.20802,20.493323 -3.1786,1.55424 -4.04108,1.425308 -2.5957,-0.387574 1.27248,-1.596013 2.01904,-3.148643 1.38751,-2.885612 -4.7058,1.95996 -9.94619,1.81045 -13.39815,-0.382922 l -1.26866,-0.806152 0.64751,-0.858346 c 0.83323,-1.104163 1.41228,-2.519808 1.63297,-3.991487 l 0.1757,-1.169438 -1.81125,1.760616 c -7.29433,7.090853 -21.138338,7.296507 -28.325408,0.420646 -1.92937,-1.845824 -2.303209,-1.779785 -2.253609,0.399976 0.02802,1.230331 0.347461,2.073909 1.272791,3.358451 0.40977,0.568831 0.387434,0.58744 -1.390096,1.162203 -5.20558,1.683229 -10.898684,0.574384 -14.560869,-2.836003 -1.474541,-1.373157 -1.467736,-1.376072 -1.039213,0.444934 0.547904,2.328314 1.672728,3.992221 3.515548,5.199683 0.523358,0.342919 0.620117,0.628424 0.620117,1.830896 0,1.650567 -0.20587,1.721942 -2.910417,1.004073 -13.56023,-3.599293 -12.868976,-22.509109 0.95188,-26.043888 5.275319,-1.349199 8.109358,-0.62831 8.349878,2.123384 0.1835,2.099252 0.639311,3.621126 1.592151,5.316472 0.72464,1.289262 1.022207,1.323832 0.743107,0.0863 C 78.27761,15.440029 84.059468,8.4036536 91.974748,5.8750936 95.073085,4.8853196 98.099915,4.4529172 100.9034,4.5108358 Z m 8.90437,30.9624512 1.38234,0.917257 c 2.40473,1.59617 5.78891,2.754872 8.07341,2.764172 l 0.96222,0.0041 0.16588,6.813021 c 0.0912,3.747161 0.20588,7.378568 0.25528,8.069792 0.10553,1.476899 0.2521,1.445878 -2.08153,0.436149 -10.64613,-4.606436 -30.45929,-5.360425 -41.87031,-1.593701 -2.85534,0.942534 -2.97618,0.960165 -2.98018,0.441316 -0.0021,-0.297482 0.317928,-3.709459 0.711068,-7.582483 l 0.714685,-7.041947 2.539897,-0.140043 c 2.7261,-0.150216 6.54837,-1.230889 8.60671,-2.433443 l 1.059366,-0.619084 1.025778,0.526066 c 4.92691,2.527654 13.681176,2.570977 19.804476,0.09767 z M 92.924044,54.802856 c 8.230786,-0.227038 16.610936,0.839598 22.466326,3.105754 13.79159,5.337623 17.17305,20.394379 8.44083,37.588403 -3.21216,6.324857 -3.80145,9.274507 -2.80913,14.060637 4.51433,21.77338 39.28224,19.11674 38.34598,-2.93005 -0.15973,-3.76138 -0.42763,-4.84594 -2.84324,-11.509375 -4.04282,-11.152056 -3.50801,-17.960146 1.81023,-23.056474 2.32959,-2.232384 6.69581,-3.789762 9.40924,-3.355867 l 1.04542,0.167431 -1.7384,0.585494 c -9.10625,3.066951 -10.63749,13.489292 -3.68349,25.068238 8.47395,14.109773 6.79558,26.411853 -4.79506,35.145663 -10.95203,8.2526 -23.65964,7.45636 -33.62379,-2.10685 -1.91441,-1.83735 -1.9085,-1.35021 0.0315,2.60966 1.83414,3.74374 4.97095,6.79579 11.35486,11.04893 2.64287,1.76076 5.91279,4.00237 7.26622,4.98161 18.41253,13.32184 29.94547,11.1388 33.6889,-6.37687 1.7979,-8.41247 7.28584,-12.91451 13.02763,-10.6872 0.73583,0.28544 0.72862,0.29271 -0.77463,0.76326 -5.09597,1.59513 -7.0261,4.55549 -8.15558,12.5088 -1.6166,11.38338 -5.47926,16.60106 -14.04617,18.97507 -8.11506,2.2488 -13.10551,0.82979 -33.16593,-9.43199 -16.76162,-8.57429 -21.88955,-11.75058 -26.68881,-16.5318 -1.14543,-1.14111 -2.10789,-2.07481 -2.13889,-2.07481 -0.48291,0 1.65559,8.90386 3.08198,12.83229 3.64089,10.02747 7.77892,15.56505 17.36897,23.24406 6.25278,5.00677 8.40406,7.77285 9.42992,12.12432 1.44749,6.14 -1.30397,12.35115 -6.54069,14.76499 -1.65474,0.76274 -3.77668,1.10797 -5.42654,0.88264 -0.80997,-0.11062 -1.24279,-0.61295 -0.52865,-0.6134 4.04133,-0.003 8.29621,-6.63278 7.34839,-11.45047 -0.88106,-4.47833 -2.85782,-6.44552 -10.89753,-10.84223 -14.16753,-7.74786 -19.451057,-14.21812 -25.221717,-30.88804 -4.76299,-13.75905 -7.568612,-14.20976 -11.936222,-1.91719 -5.76163,16.21603 -12.381788,24.94954 -24.27242,32.02078 -6.197046,3.68532 -8.518355,5.71505 -9.84126,8.60465 -2.451565,5.35493 -0.39612,11.59274 4.521688,13.72112 1.767891,0.76512 1.810927,1.01648 0.173633,1.01648 -8.566884,0 -13.684303,-9.17084 -9.843844,-17.64079 1.642398,-3.62223 3.350519,-5.44001 9.218559,-9.81335 11.750608,-8.75751 16.759741,-17.82848 20.402889,-36.94503 0.673128,-3.53208 0.665715,-3.54081 -0.905888,-1.05989 -11.170694,17.63398 -25.314449,24.72647 -43.268677,21.69687 -8.154255,-1.37595 -9.99547,-1.5622 -12.303125,-1.24437 -5.818846,0.80143 -10.2008108,5.48276 -10.2179808,10.91613 -0.00693,2.19266 -0.081735,2.21959 -0.9157064,0.33383 -2.186062,-4.94307 0.2220299,-11.38017 5.5262772,-14.77326 3.742366,-2.39396 7.287697,-2.86661 15.954065,-2.12648 13.295392,1.13546 22.708933,-2.35021 31.591871,-11.69748 4.447545,-4.68002 9.167955,-13.0833 5.430676,-9.66763 -12.435353,11.36521 -27.641892,11.9885 -36.473226,1.495 -4.161589,-4.94485 -5.595217,-10.82584 -4.984192,-20.44423 0.552389,-8.695373 0.319634,-12.920101 -0.865063,-15.714801 l -0.417029,-0.983919 0.939477,0.03514 c 2.287039,0.08597 2.141668,-1.905042 -0.225309,-3.084566 -4.541165,-2.262962 -10.152677,1.089456 -10.451042,6.243546 -0.138497,2.39245 -0.19891,2.437081 -1.4412553,1.061951 -4.6292349,-5.12401 1.8350443,-14.048759 9.0542273,-12.500529 6.654303,1.427098 8.868391,6.212601 9.254733,20.002398 0.252252,9.0037 0.653258,11.35932 2.588472,15.21354 6.762606,13.46859 28.984585,10.21927 35.493441,-5.18986 2.101961,-4.9762 2.151849,-9.64219 0.187069,-17.564307 -4.840078,-19.515619 0.0645,-33.483784 12.910869,-36.769331 4.252965,-1.087727 9.137673,-1.690022 14.076144,-1.826246 z m 13.583666,18.149797 c -2.58763,-0.140093 -5.19818,0.549682 -6.844543,2.335775 -2.08618,2.26323 -1.76389,3.324723 0.642343,2.114083 4.7751,-2.40249 11.19887,-1.421628 13.84256,2.114082 l 0.44855,0.600481 0.0842,-0.779798 c 0.38815,-3.61189 -3.86043,-6.151135 -8.17315,-6.384623 z m -32.916336,0.155029 c -3.065405,-0.03997 -5.958293,1.623556 -5.958293,4.408517 0,0.4289 0.227468,0.371226 1.886707,-0.480074 2.751145,-1.41157 5.579228,-1.415909 8.405688,-0.01292 2.51347,1.24763 2.923868,0.263058 0.782898,-1.877922 -1.376321,-1.37632 -3.277757,-2.01362 -5.117,-2.037601 z m -1.675867,9.137944 -2.11925,2.11925 4.185274,5.809465 -3.125908,3.858679 2.119251,2.383834 2.955375,-3.537252 2.739368,3.802352 3.046325,-2.648934 -3.366719,-4.049365 3.366719,-4.029728 -2.383833,-2.383834 -3.116606,3.84731 z m 30.196603,2.781225 -1.98696,1.986959 4.4111,4.297929 -3.7486,3.648356 2.11873,2.516126 4.29845,-3.564641 3.25096,3.167766 2.11873,-2.914034 -2.76417,-2.414323 3.95635,-3.28042 -3.04633,-3.178618 -3.92792,3.823023 z m 61.84222,2.021582 c 0.6527,0 1.5599,1.797805 1.5689,3.108855 0.009,1.30295 -0.63588,1.069856 -1.42575,-0.515214 -0.84924,-1.7042 -0.89843,-2.593641 -0.14315,-2.593641 z M 19.064986,95.047428 c 0.26566,-0.26566 0.158846,5.691202 -0.125574,7.003192 -0.312049,1.43944 -1.298762,3.00222 -1.302762,2.06344 -0.0037,-0.85387 1.264324,-8.902622 1.428336,-9.066632 z m 150.721034,1.328601 c 1.02744,0.205962 2.34068,2.203582 2.35179,3.819401 0.007,1.05854 -0.18943,1.1799 -1.21594,0.74828 -1.43237,-0.60226 -2.63828,-4.124382 -1.55443,-4.540292 0.13047,-0.05007 0.2718,-0.05681 0.41858,-0.02739 z m 4.01422,11.146611 c 1.31985,0.29749 1.99417,3.04804 0.97152,4.95887 -0.62262,1.16339 -2.19843,0.13949 -2.49597,-1.62161 -0.22557,-1.33513 0.26631,-3.09698 0.92242,-3.30522 0.21182,-0.0672 0.41348,-0.0745 0.60203,-0.032 z m -156.480367,0.10387 c 0.05759,-0.015 0.12228,0.0154 0.198954,0.0791 1.090944,0.9054 0.989968,4.12902 -0.148311,4.73821 -0.814962,0.43615 -1.060828,0.31594 -0.935343,-0.45837 0.06485,-0.40019 0.252035,-1.59612 0.415995,-2.6572 0.185725,-1.20197 0.295931,-1.65669 0.468705,-1.7017 z m 75.567997,1.04128 c -1.22669,0.0386 -2.234198,0.55665 -2.742468,0.66972 -2.132672,0.47444 -1.98786,6.46198 -1.542541,7.30705 0.504795,0.95794 2.35299,0.85616 6.941695,5.2e-4 1.15789,-0.085 3.718961,-2.748 1.400431,-5.77019 -1.38458,-1.80479 -2.830426,-2.24567 -4.057117,-2.2071 z m 79.4489,10.42158 c 0.19578,0.0314 0.38145,0.12462 0.54777,0.29094 0.69703,0.69704 0.10935,3.25209 -1.02836,4.47001 -1.00248,1.07316 -1.56521,0.96825 -2.0805,-0.38706 -0.68295,-1.79631 1.19064,-4.59392 2.56109,-4.37389 z m -153.118305,2.69234 c 1.016638,0.20327 2.194993,2.22098 2.06344,3.81321 -0.05405,0.65418 -0.226905,1.0312 -0.496094,1.0821 -1.239328,0.23441 -3.143133,-4.42195 -1.989026,-4.86482 0.134347,-0.0516 0.276446,-0.0595 0.42168,-0.0305 z m 146.564695,7.42539 c 1.50351,-0.0374 1.24361,1.75345 -0.76894,3.33003 -1.64678,1.29004 -2.06548,1.42962 -2.40192,0.80098 -0.68739,-1.28439 0.62956,-3.4612 2.41845,-3.99717 0.28679,-0.0859 0.53763,-0.12849 0.75241,-0.13384 z m -140.850315,2.17971 c 0.784,-0.17265 2.434128,0.77049 3.093351,2.05001 0.452423,0.87813 0.471456,1.06229 0.143144,1.39061 -0.71018,0.71018 -3.663342,-1.60091 -3.663342,-2.86701 0,-0.33433 0.165514,-0.51606 0.426847,-0.57361 z m 131.825545,5.27255 c 0.27169,0.0369 0.52399,0.12238 0.74259,0.26562 0.92986,0.60927 0.39833,1.33569 -1.78749,2.44274 -1.93395,0.97949 -2.16074,1.018 -2.63291,0.44907 -1.07777,-1.29862 1.77599,-3.41604 3.67781,-3.15743 z m -122.455574,0.71055 c 1.216743,0.027 3.432348,1.19951 3.432348,1.95285 0,0.5828 -1.564093,0.4663 -2.920235,-0.21756 -1.203974,-0.60713 -1.662829,-1.40379 -0.963248,-1.67225 0.123655,-0.0474 0.277314,-0.0669 0.451135,-0.063 z m 152.201564,1.32085 c 0.78978,0.11227 0.89748,1.30212 0.27078,2.99 -0.5213,1.40402 -0.88407,1.68695 -1.38648,1.08159 -1.02279,-1.23239 -0.19369,-4.25771 1.1157,-4.07159 z m -1.89394,10.12755 c 0.15026,9e-5 0.30109,0.0371 0.44907,0.11627 0.93616,0.50101 0.87586,2.36154 -0.1261,3.89072 -0.97294,1.48489 -1.82681,1.28123 -2.11666,-0.50488 -0.27606,-1.7012 0.74186,-3.50279 1.79369,-3.50211 z m -128.863972,5.24981 c 1.237737,0.0794 0.997133,1.44597 -1.164787,2.45256 -1.606856,0.74816 -1.990339,0.78789 -2.205033,0.22841 -0.291246,-0.75898 0.408877,-1.71861 1.655713,-2.27015 0.724669,-0.32055 1.301528,-0.4373 1.714107,-0.41082 z m 26.47797,0.16588 c 0.285277,0.0262 0.51037,0.19475 0.620118,0.54053 0.21032,0.66267 -0.730935,2.81886 -1.648995,3.77755 -1.35644,1.41645 -2.323116,0.46922 -1.687236,-1.65313 0.46167,-1.54096 1.860284,-2.74354 2.716113,-2.66495 z m 46.195112,0.41599 c 1.601,-0.26425 4.27077,1.49837 3.99356,2.93781 -0.14072,0.73073 -0.72574,0.72551 -2.22106,-0.0196 -2.00965,-1.00145 -3.05757,-2.17738 -2.38176,-2.67374 0.17337,-0.12734 0.38055,-0.20668 0.60926,-0.24443 z m -105.955288,0.7736 c 0.886413,0.13958 1.761907,0.54375 1.816943,1.08469 0.02183,0.21455 0.0516,0.53033 0.06615,0.70176 0.01455,0.17143 -0.271301,0.38931 -0.635103,0.48421 -1.420426,0.37046 -3.330443,-0.70887 -3.129525,-1.76837 0.09801,-0.51684 0.995126,-0.64187 1.881539,-0.50229 z m 9.623702,1.37459 c 0.493321,0.004 1.044162,0.12153 1.592668,0.38706 1.462333,0.70791 2.030467,1.70807 1.281575,2.25567 -0.871078,0.63695 -3.139617,0.31654 -4.134631,-0.58394 -1.180981,-1.06877 -0.219576,-2.07199 1.260388,-2.05879 z m 12.105721,0.50385 c 0.608227,0.0553 1.188039,0.25694 1.60817,0.65164 0.817568,0.76807 0.769467,1.36816 -0.130224,1.6185 -1.119759,0.31156 -3.839177,0.25877 -4.179073,-0.0811 -1.204145,-1.20416 0.876446,-2.35489 2.701127,-2.18901 z m 135.297165,1.28002 c 0.88281,-0.0898 1.55087,0.28426 1.26091,1.19786 -0.25861,0.81479 -1.65176,2.35668 -2.54868,2.8205 -1.97234,1.01994 -2.60902,-0.2071 -1.26246,-2.43293 0.56992,-0.94207 1.66742,-1.49567 2.55023,-1.58543 z m -83.823821,0.53124 c 0.973327,0.20117 2.871058,3.04751 2.531111,4.11861 -0.37727,1.18866 -1.837268,0.2854 -2.638598,-1.63246 -0.42276,-1.01179 -0.534323,-2.10737 -0.243913,-2.39779 0.09211,-0.0921 0.212353,-0.1171 0.3514,-0.0884 z m 45.272691,1.77198 c 1.94686,-0.20074 4.70669,1.76239 4.12119,3.28817 -0.302,0.78701 -2.72749,0.0746 -4.59558,-1.3503 -1.00479,-0.76639 -1.09532,-1.28542 -0.29818,-1.71204 0.23283,-0.12461 0.49444,-0.19715 0.77257,-0.22583 z m 27.44122,3.98787 c 0.49647,0.0331 0.97835,0.15106 1.39474,0.36639 1.30248,0.67354 0.50373,1.64645 -1.94975,2.37505 -2.38102,0.70709 -3.4443,0.30501 -2.9378,-1.11105 0.38193,-1.0678 2.00339,-1.72971 3.49281,-1.63039 z m -14.11542,0.50488 c 1.21447,-0.0498 2.62793,0.3061 3.42305,1.10122 l 0.8046,0.80461 -0.61237,0.49557 c -0.65766,0.53254 -1.21882,0.56554 -3.41633,0.19999 -1.7572,-0.29231 -2.42931,-0.6434 -2.42931,-1.26866 0,-0.82769 1.01588,-1.28297 2.23036,-1.33273 z m -79.047889,0.34726 c 0.217825,0.0274 0.412352,0.1147 0.570508,0.27286 0.61459,0.6146 -0.419033,2.53227 -2.026233,3.75946 -1.416261,1.0814 -2.087238,1.14867 -2.317171,0.23254 -0.433299,-1.7264 2.248119,-4.45687 3.772896,-4.26486 z m 28.141949,3.74086 c 1.3187,-0.18142 3.961,1.81566 3.961,3.26595 0,1.19273 -0.92313,1.11291 -2.61741,-0.22634 -1.83926,-1.45386 -2.36547,-2.27095 -1.81591,-2.8205 0.12279,-0.12279 0.28394,-0.19319 0.47232,-0.21911 z m -38.800213,4.74597 c 0.836608,0.004 1.486214,0.36044 1.486214,1.06815 0,0.39263 -1.701346,1.64542 -2.988965,2.2009 -2.138067,0.92236 -2.871772,-0.55155 -1.104325,-2.21847 0.746958,-0.70449 1.770467,-1.0542 2.607076,-1.05058 z m 49.824353,2.07687 c 1.5105,-0.12814 3.63824,1.21245 3.468,2.40554 -0.1348,0.94467 -1.90271,0.90185 -3.45353,-0.0837 -1.42431,-0.90518 -1.64973,-1.70123 -0.61547,-2.17247 0.18209,-0.083 0.38521,-0.13104 0.601,-0.14935 z m -59.350903,3.6282 c 1.264009,0 1.109556,1.07266 -0.29714,2.06344 -1.697825,1.19583 -2.457104,0.95522 -1.81746,-0.57567 0.421844,-1.00961 1.101909,-1.48777 2.1146,-1.48777 z m 68.846443,2.20917 c 0.18676,-0.0176 0.44525,0.0663 0.76998,0.27905 0.80455,0.52716 1.32898,1.53679 1.10329,2.12494 -0.23646,0.61619 -0.86172,0.50118 -1.46813,-0.26975 -0.87969,-1.11835 -0.96542,-2.08152 -0.40514,-2.13424 z" /></g></svg>
